<?xml version="1.0" encoding="utf-8"?>
<!DOCTYPE svg PUBLIC "-//W3C//DTD SVG 1.1//EN" "http://www.w3.org/Graphics/SVG/1.1/DTD/svg11.dtd">
<svg version="1.1" xmlns="http://www.w3.org/2000/svg" width="597.6px" height="208.8px">
<path fill="#002D69" d="M210.52,20.79c0.47-0.02,1.4-0.14,1.7-0.26c0.56-0.21,0.72-0.63,0.72-1.14V7.49c0-0.51-0.16-0.96-0.72-1.19
	c-0.54-0.26-1.19-0.35-1.61-0.4V5.39h7.69c3.26,0,8.76,1.68,8.76,8.06c0,5.43-4.64,7.85-9.23,7.85h-7.32V20.79z M223.52,13.43
	c0-4.24-2.21-7.34-5.71-7.34c-0.49,0-1.3,0.02-1.77,0.05v12.79c0.07,1.09,0.72,1.68,2.24,1.68
	C221.94,20.6,223.52,17.62,223.52,13.43z"/>
<path fill="#002D69" d="M243.31,17.67c-0.26-2.17-0.72-4.03-3.15-4.03h-1.35v5.69c0,0.51,0.16,0.93,0.7,1.14
	c0.3,0.12,1.26,0.28,1.68,0.33v0.51h-7.92v-0.51c0.42-0.02,1.42-0.16,1.72-0.28c0.56-0.21,0.72-0.63,0.72-1.17V7.44
	c0-0.51-0.14-0.96-0.72-1.17c-0.42-0.16-1.3-0.33-1.72-0.37V5.39h8.32c2.94,0,5.45,1.07,5.45,3.61c0,2.54-2.4,3.61-4.29,4.12v0.19
	c1.14,0.14,2.98,0.72,3.45,2.42c0.35,1.28,0.47,2.28,0.75,3.4c0.23,0.91,0.72,1.1,1.12,1.1c0.58,0,1.1-0.68,1.1-2.12
	c0-0.02,0-0.49,0-0.49h0.65l-0.02,0.51c-0.02,2.05-0.86,3.43-3.19,3.43C244.64,21.56,243.66,20.44,243.31,17.67z M239.77,12.94
	c2.05,0,3.8-0.82,3.8-3.5c0-2.54-1.42-3.38-3.29-3.38h-1.47v6.87H239.77z"/>
<path fill="#002D69" d="M255.05,20.79c0.42-0.05,1.49-0.16,1.82-0.3c0.56-0.21,0.72-0.61,0.72-1.14V7.49c0-0.51-0.14-0.91-0.72-1.14
	c-0.44-0.19-1.4-0.4-1.82-0.44V5.39h13.23v3.87h-0.63c-0.28-1.05-1.51-2.94-2.61-3.1c-0.56-0.07-1.19-0.09-1.91-0.09h-2.45v6.64
	h1.75c1.28,0,1.7-0.4,2-0.7c0.4-0.4,0.72-1.56,0.79-2.17h0.63v6.55h-0.63c-0.07-0.7-0.47-1.93-0.79-2.28s-0.77-0.7-2-0.7h-1.75v5.15
	c0,1.82,0.4,2.05,2.63,2.05c1.47,0,3.05,0.02,3.61-0.54c0.82-0.82,1.72-2.68,2-3.43h0.58l-0.3,4.66h-14.17V20.79z"/>
<path fill="#002D69" d="M287.56,6.86c0-0.65-0.98-0.86-2.24-0.96V5.39h6.59V5.9c-0.54,0.05-1.19,0.19-1.61,0.37
	c-0.91,0.37-1.49,1.03-2,1.65c-1.28,1.56-2.56,3.24-3.61,4.52c1.17,1.63,3.8,5.52,4.43,6.34c0.49,0.63,0.93,1.26,1.72,1.68
	c0.33,0.19,1.14,0.28,1.7,0.33v0.51h-9.13v-0.51c1.37-0.09,2.42-0.3,2.42-0.93c0-0.61-1.51-2.82-3.29-5.31
	c-1,1.23-3.71,4.59-3.71,5.31c0,0.65,0.98,0.86,2.24,0.96v0.51h-6.59v-0.51c0.54-0.05,1.17-0.19,1.61-0.37
	c0.91-0.37,1.49-1.02,2-1.65c1.44-1.72,2.84-3.61,3.96-4.94c-1.49-2.14-3.05-4.4-4.1-5.94c-0.54-0.77-0.89-1.26-1.72-1.65
	c-0.37-0.16-1.12-0.3-1.68-0.35V5.39h9.11V5.9c-1.37,0.09-2.4,0.3-2.4,0.93c0,0.84,1.93,3.49,2.94,4.89
	C285.39,10.28,287.56,7.49,287.56,6.86z"/>
<path fill="#002D69" d="M297.65,20.79c0.42-0.05,1.49-0.16,1.82-0.3c0.56-0.21,0.72-0.61,0.72-1.14V7.49c0-0.51-0.14-0.91-0.72-1.14
	c-0.44-0.19-1.4-0.4-1.82-0.44V5.39h13.23v3.87h-0.63c-0.28-1.05-1.51-2.94-2.61-3.1c-0.56-0.07-1.19-0.09-1.91-0.09h-2.45v6.64
	h1.75c1.28,0,1.7-0.4,2-0.7c0.4-0.4,0.72-1.56,0.79-2.17h0.63v6.55h-0.63c-0.07-0.7-0.47-1.93-0.79-2.28s-0.77-0.7-2-0.7h-1.75v5.15
	c0,1.82,0.4,2.05,2.63,2.05c1.47,0,3.05,0.02,3.61-0.54c0.82-0.82,1.72-2.68,2-3.43h0.58l-0.3,4.66h-14.17V20.79z"/>
<path fill="#002D69" d="M317.97,20.79c0.42-0.05,1.42-0.16,1.72-0.28c0.56-0.23,0.72-0.65,0.72-1.17V7.51
	c0-0.51-0.14-0.91-0.72-1.16c-0.42-0.19-1.3-0.4-1.72-0.44V5.39h7.95V5.9c-0.42,0.05-1.26,0.19-1.68,0.33
	c-0.58,0.19-0.72,0.65-0.72,1.17v11.16c0,1.91,0.33,2.07,2.63,2.07c1.26,0,2.7-0.07,3.19-0.58c0.7-0.72,1.77-2.54,2.1-3.5H332
	l-0.33,4.75h-13.7V20.79z"/>
<path fill="#002D69" d="M349.31,16.6V7.46c0-0.51-0.19-0.89-0.72-1.17c-0.42-0.21-1.26-0.35-1.61-0.4V5.39h7.83V5.9
	c-0.42,0.05-1.26,0.16-1.65,0.3c-0.58,0.19-0.72,0.63-0.72,1.14v8.99c0,2.38,0.86,4.26,3.98,4.26c3.15,0,4.31-2.14,4.31-4.33v-6.5
	c0-1.82-0.28-2.77-0.79-3.15c-0.49-0.35-1.79-0.68-2.28-0.72V5.39h6.87V5.9c-0.4,0.05-1.61,0.23-2.14,0.58
	c-0.58,0.4-0.75,1.47-0.75,3.15v6.76c0,3.77-3.19,5.29-5.94,5.29C351.5,21.68,349.31,19.46,349.31,16.6z"/>
<path fill="#002D69" d="M373.26,8.63v8.23c0,1.79,0.28,2.77,0.79,3.19c0.4,0.33,1.86,0.7,2.28,0.75v0.51h-6.87v-0.51
	c0.4-0.05,1.75-0.35,2.14-0.63c0.54-0.4,0.75-1.4,0.75-3.19V8.81c0-0.7-0.23-1.4-0.72-1.84c-0.54-0.47-1.61-0.93-2.35-1.05V5.39
	h5.24l9.11,11.58V9.79c0-1.72-0.28-2.8-0.79-3.17c-0.42-0.3-1.82-0.68-2.28-0.72V5.39h6.85V5.9c-0.4,0.05-1.68,0.28-2.14,0.61
	c-0.56,0.4-0.75,1.51-0.75,3.15v11.77h-1.19L373.26,8.63z"/>
<path fill="#002D69" d="M392.79,20.79c0.42-0.02,1.38-0.14,1.68-0.26c0.56-0.21,0.72-0.61,0.72-1.12V7.46
	c0-0.51-0.16-0.89-0.72-1.12c-0.42-0.16-1.23-0.4-1.68-0.44V5.39h7.9V5.9c-0.42,0.05-1.28,0.19-1.7,0.33
	c-0.56,0.19-0.7,0.61-0.7,1.12V19.3c0,0.51,0.19,0.89,0.7,1.12c0.28,0.12,1.28,0.33,1.7,0.37v0.51h-7.9V20.79z"/>
<path fill="#002D69" d="M408.15,7.63c-0.21-0.58-0.44-0.93-1.02-1.28c-0.42-0.23-1.03-0.42-1.54-0.44V5.39h7.85V5.9
	c-1.28,0.14-2.21,0.4-2.21,0.86c0,0.16,0.05,0.4,0.12,0.58c0.26,0.77,2.26,6.5,3.68,10.44c1.05-2.47,2.52-6.08,2.96-7.25
	c0.63-1.63,1.1-2.68,1.1-3.45c0-0.7-1.51-1.1-2.66-1.17V5.39h6.29v0.54c-0.44,0.02-1.1,0.21-1.51,0.44
	c-0.65,0.42-0.96,1.07-1.3,1.84c-0.72,1.68-4.15,9.95-5.55,13.28h-1.23C411.48,16.92,408.73,9.23,408.15,7.63z"/>
<path fill="#002D69" d="M427.3,20.79c0.42-0.05,1.49-0.16,1.82-0.3c0.56-0.21,0.72-0.61,0.72-1.14V7.49c0-0.51-0.14-0.91-0.72-1.14
	c-0.44-0.19-1.4-0.4-1.82-0.44V5.39h13.23v3.87h-0.63c-0.28-1.05-1.51-2.94-2.61-3.1c-0.56-0.07-1.19-0.09-1.91-0.09h-2.45v6.64
	h1.75c1.28,0,1.7-0.4,2-0.7c0.4-0.4,0.72-1.56,0.79-2.17h0.63v6.55h-0.63c-0.07-0.7-0.47-1.93-0.79-2.28s-0.77-0.7-2-0.7h-1.75v5.15
	c0,1.82,0.4,2.05,2.63,2.05c1.47,0,3.05,0.02,3.61-0.54c0.82-0.82,1.72-2.68,2-3.43h0.58l-0.3,4.66H427.3V20.79z"/>
<path fill="#002D69" d="M457.59,17.67c-0.26-2.17-0.72-4.03-3.15-4.03h-1.35v5.69c0,0.51,0.16,0.93,0.7,1.14
	c0.3,0.12,1.26,0.28,1.68,0.33v0.51h-7.92v-0.51c0.42-0.02,1.42-0.16,1.72-0.28c0.56-0.21,0.72-0.63,0.72-1.17V7.44
	c0-0.51-0.14-0.96-0.72-1.17c-0.42-0.16-1.3-0.33-1.72-0.37V5.39h8.32c2.94,0,5.45,1.07,5.45,3.61c0,2.54-2.4,3.61-4.29,4.12v0.19
	c1.14,0.14,2.98,0.72,3.45,2.42c0.35,1.28,0.47,2.28,0.75,3.4c0.23,0.91,0.72,1.1,1.12,1.1c0.58,0,1.1-0.68,1.1-2.12
	c0-0.02,0-0.49,0-0.49h0.65l-0.02,0.51c-0.02,2.05-0.86,3.43-3.19,3.43C458.92,21.56,457.94,20.44,457.59,17.67z M454.05,12.94
	c2.05,0,3.8-0.82,3.8-3.5c0-2.54-1.42-3.38-3.29-3.38h-1.47v6.87H454.05z"/>
<path fill="#002D69" d="M471.25,20.44l-0.77,1.07h-0.79l-0.14-5.64h0.56c0.91,2.38,2.59,5.01,5.29,5.01c1.93,0,2.94-1.21,2.94-2.89
	c0-1.4-0.84-2.35-2.4-2.94c-1.17-0.44-2.12-0.77-3.17-1.21c-1.89-0.82-2.8-2.28-2.8-4.31c0-2.49,1.98-4.5,5.01-4.5
	c1.45,0,2.87,0.56,3.68,1.12l0.7-1h0.82l0.09,5.41h-0.54c-1.05-2.91-2.42-4.78-4.85-4.78c-1.17,0-2.38,0.86-2.38,2.47
	c0,1.4,0.77,2.21,2.26,2.89c1.09,0.49,2.19,0.82,3.1,1.21c1.91,0.84,3.15,1.89,3.15,4.36c0,2.84-2.31,4.92-5.59,4.92
	C473.28,21.63,472.02,20.95,471.25,20.44z"/>
<path fill="#002D69" d="M487.28,20.79c0.42-0.02,1.38-0.14,1.68-0.26c0.56-0.21,0.72-0.61,0.72-1.12V7.46
	c0-0.51-0.16-0.89-0.72-1.12c-0.42-0.16-1.23-0.4-1.68-0.44V5.39h7.9V5.9c-0.42,0.05-1.28,0.19-1.7,0.33
	c-0.56,0.19-0.7,0.61-0.7,1.12V19.3c0,0.51,0.19,0.89,0.7,1.12c0.28,0.12,1.28,0.33,1.7,0.37v0.51h-7.9V20.79z"/>
<path fill="#002D69" d="M503.92,20.79c0.42-0.02,1.58-0.19,1.89-0.3c0.56-0.21,0.72-0.65,0.72-1.17V6.06h-0.82
	c-0.54,0-1.26,0.02-1.79,0.09c-1,0.14-2.26,2.38-2.54,3.4h-0.58V5.39h14.56v4.17h-0.58c-0.28-1.03-1.54-3.26-2.54-3.4
	c-0.54-0.07-1.19-0.09-1.79-0.09h-0.82v13.14c0,0.51,0.19,0.93,0.72,1.17c0.28,0.12,1.47,0.37,1.89,0.42v0.51h-8.32V20.79z"/>
<path fill="#002D69" d="M523.49,20.79c0.42-0.02,1.61-0.16,1.91-0.28c0.56-0.21,0.72-0.65,0.72-1.17v-3.66
	c0-0.72-0.19-1.21-0.68-2.1c-0.84-1.63-2.33-4.4-3.1-5.71c-0.4-0.7-0.91-1.26-1.44-1.58c-0.42-0.23-1.05-0.37-1.49-0.4V5.39h8.22
	V5.9c-0.82,0.05-2.33,0.26-2.33,0.77c0,0.28,1.82,3.8,3.61,6.92c1.03-1.68,3.71-6.15,3.71-6.64c0-0.7-1.33-0.98-2.38-1.05V5.39h5.99
	V5.9c-0.42,0.05-1.03,0.28-1.35,0.47c-0.63,0.37-0.98,0.72-1.44,1.38c-0.7,0.98-2.45,3.94-3.45,5.73c-0.63,1.1-0.77,1.79-0.77,2.87
	v2.89c0,0.51,0.19,0.93,0.72,1.17c0.28,0.12,1.47,0.37,1.89,0.4v0.51h-8.34V20.79z"/>
<path fill="#1D1D1B" d="M223.34,63.6c-7.25,0-12.18-5-12.18-12.8c0-7.58,5.56-13.35,12.95-13.35c2.02,0,4.45,0.96,5.56,1.99
	l1.1-1.88h1.51l0.15,9.09h-0.88c-1.32-4.27-3.83-8.13-8.57-8.13c-3.75,0-7.39,3.64-7.39,11.99c0,6.66,4.01,11.18,8.83,11.18
	c4.49,0,6.59-2.32,8.02-5.52l0.96,0.52C231.87,60.1,228.93,63.6,223.34,63.6z"/>
<path fill="#1D1D1B" d="M242.54,63.56c-4.41,0-8.31-3.35-8.31-8.76c0-5.22,3.42-8.87,8.57-8.87s8.39,3.72,8.39,8.61
	C251.19,59.44,248.1,63.56,242.54,63.56z M242.77,46.78c-3.83,0-4.82,4.23-4.82,7.73c0,4.38,1.36,8.2,4.82,8.2
	c3.27,0,4.71-3.72,4.71-8.13C247.47,50.72,246.33,46.78,242.77,46.78z"/>
<path fill="#1D1D1B" d="M251.74,63.04v-0.74c0.66-0.04,1.1-0.11,1.62-0.26c0.7-0.22,0.99-0.85,0.99-1.66V39.54
	c-0.07-0.85-0.4-1.69-0.99-2.1c-0.44-0.29-1.91-0.7-2.58-0.74V36l6.66-0.4l0.26,0.26v24.32c0,0.81,0.33,1.4,0.99,1.69
	c0.55,0.26,0.96,0.4,1.62,0.44v0.74H251.74z"/>
<path fill="#1D1D1B" d="M261.31,63.04v-0.74c0.66-0.04,1.1-0.11,1.62-0.26c0.7-0.22,0.99-0.85,0.99-1.66V39.54
	c-0.07-0.85-0.4-1.69-0.99-2.1c-0.44-0.29-1.91-0.7-2.58-0.74V36l6.66-0.4l0.26,0.26v24.32c0,0.81,0.33,1.4,0.99,1.69
	c0.55,0.26,0.96,0.4,1.62,0.44v0.74H261.31z"/>
<path fill="#1D1D1B" d="M278.56,63.49c-5.56,0-8.13-4.05-8.13-8.9c0-4.41,2.83-8.65,7.73-8.65c5.04,0,6.88,3.31,6.88,7.06v0.33
	h-10.96v0.4c0,4.75,1.54,8.13,5.48,8.13c2.87,0,3.79-1.03,5.19-3.27l0.66,0.44C284.12,61.65,281.66,63.49,278.56,63.49z
	 M278.12,46.78c-2.32,0-3.94,2.28-4.05,5.74l7.39-0.07C281.47,49.8,280.92,46.78,278.12,46.78z"/>
<path fill="#1D1D1B" d="M302.55,49.51c-1.21,0-1.58-0.81-1.58-2.35c-1.21,0-1.73,0.22-2.28,0.62v0.26c0.88,0.96,1.4,2.39,1.4,3.49
	c0,3.2-3.2,5.22-6.22,5.22h-2.13c-0.66,0.33-1.29,0.77-1.29,1.58c0,1.8,2.13,1.73,3.94,1.8c1.07,0.04,3.35,0.18,4.12,0.22
	c2.17,0.11,4.71,1.91,4.71,5c0,3.38-2.91,6-9.23,6c-5.81,0-8.02-1.69-8.02-4.49c0-2.06,1.91-3.79,5.81-3.9v-0.26
	c-1.44-0.4-3.86-1.18-3.86-3.27c0-1.8,2.06-2.5,3.27-2.98v-0.22c-2.58-1.03-4.16-2.72-4.16-4.89c0-3.38,2.94-5.41,6.59-5.41
	c2.54,0,4.56,1.1,5.04,1.1c1.36-0.85,2.13-1.1,3.72-1.1c0.88,0,1.73,0.77,1.73,1.77C304.1,48.77,303.55,49.51,302.55,49.51z
	 M298.4,63.52c-0.81-0.11-2.39-0.26-5.7-0.26c-2.61,0.52-3.61,1.54-3.61,3.83c0,1.47,1.44,3.31,5.52,3.31c3.57,0,5.67-1.44,5.67-4.3
	C300.27,65.25,300.13,64.08,298.4,63.52z M293.5,46.75c-2.35,0-3.02,2.13-3.02,4.56c0,2.61,1.21,4.6,3.05,4.6
	c2.17,0,3.13-2.13,3.13-4.49C296.67,48.99,295.82,46.75,293.5,46.75z"/>
<path fill="#1D1D1B" d="M311.68,63.49c-5.56,0-8.13-4.05-8.13-8.9c0-4.41,2.83-8.65,7.73-8.65c5.04,0,6.88,3.31,6.88,7.06v0.33
	h-10.96v0.4c0,4.75,1.54,8.13,5.48,8.13c2.87,0,3.79-1.03,5.19-3.27l0.66,0.44C317.23,61.65,314.77,63.49,311.68,63.49z
	 M311.24,46.78c-2.32,0-3.94,2.28-4.05,5.74l7.39-0.07C314.59,49.8,314.03,46.78,311.24,46.78z"/>
<path fill="#1D1D1B" d="M335.08,63.56c-4.41,0-8.31-3.35-8.31-8.76c0-5.22,3.42-8.87,8.57-8.87s8.39,3.72,8.39,8.61
	C343.73,59.44,340.63,63.56,335.08,63.56z M335.3,46.78c-3.83,0-4.82,4.23-4.82,7.73c0,4.38,1.36,8.2,4.82,8.2
	c3.27,0,4.71-3.72,4.71-8.13C340.01,50.72,338.87,46.78,335.3,46.78z"/>
<path fill="#1D1D1B" d="M357.04,40.71c-0.85,0-2.13-0.4-2.13-1.66c0-0.55,0.22-1.14,0.22-1.95c-0.15-0.44-0.48-0.7-0.88-0.7
	c-2.32,0-3.46,2.21-3.64,7.84c0,0.55-0.04,1.62-0.04,2.24h4.64v1.55h-4.64v12.18c0,0.77,0.33,1.4,0.99,1.66
	c0.55,0.22,1.73,0.4,2.39,0.44v0.74h-9.34v-0.74c0.66-0.04,1.1-0.11,1.62-0.26c0.7-0.22,0.99-0.85,0.99-1.66V48.04h-3.75v-1.55h3.75
	v-1.14c0-3.05,0.7-5.63,2.5-7.54c1.51-1.62,3.53-2.24,5.41-2.24c2.76,0,3.9,1.66,3.9,3.24C359.03,39.5,358.33,40.71,357.04,40.71z"
	/>
<rect x="199.23" y="4.91" fill="#002D69" width="1.25" height="197.59"/>
<path fill="#002D69" d="M170.77,91.9c0.49-1.71,0.5-3.37,0.4-5.26C174.08,87.23,173.89,91.68,170.77,91.9 M151.76,122.98
	c0,0-0.58,3.15-2.41,2.24c-1.83-0.9-2.27-3.69-2.27-3.69S149.2,122.43,151.76,122.98 M165.41,128.06c-2.07,3.4-7.75-0.38-7.75-0.38
	c1.63-1.26,2.67-3.47,3.03-6.19C163.56,121.7,167.61,124.45,165.41,128.06 M142.12,32.54c-2.37-0.91-1.7-8.21-1.7-8.21
	c0.56,3.32,4.5,5.58,7.89,3.64C148.31,27.97,144.85,33.58,142.12,32.54 M136.78,89.07c-1.75,0.33-3.95-0.41-5.26-1.42
	c-4.22-3.24-5.96-11.93-6.27-18.61c1.8,3.84,4.68,9.9,9.91,8.3c1.78-0.55,3.9-2.93,3.9-2.93C140.69,78.86,142.06,88.07,136.78,89.07
	 M165.34,19.42c1.71,0.09,3.42,1.09,3.4,2.48c-0.03,2.12-2.06,2.64-3.62,2.49c-2.11-0.21-3.09-1.43-3.06-2.68
	C162.1,20.25,163.62,19.33,165.34,19.42 M142.46,10.55c2.52-6.05,9.07-7.05,9.07-7.05c-5.06-0.16-21.18,2.41-22.65,18.4
	c-0.48,5.26,1.46,9.69,3.65,13.35c-2.72-2.06-5.99-5.58-6.47-10.32c-0.4-3.85,1.62-9.75,1.62-9.75c-3.87,4.57-7.99,10.3-7.09,18.04
	c0.84,7.22,5.65,12.1,8.9,16.18c-2.38-1.16-3.88-2.36-6.07-4.65c0.71,8.67,3.42,15.33,9.51,18.61c-7.76-0.74-9.31-6.21-11.53-12.34
	c-1.54-4.27-4.12-6.69-6.47-9.31c3.65,0.73,5.71,3.06,7.49,5.67c-1.15-7.48-6.55-10.72-14.17-11.73c3.23-2.93,8.58-0.05,11.06,1.35
	c0,0-1.56-3.08-2.97-4.59c-3.73-4-11.9-3.06-16.79-1.42c1.77-3.08,6.57-5.46,10.72-4.24c-2.55-2.23-5.71-3.78-9.71-4.05
	c-6.86-0.46-12.6,3.3-15.98,5.87c0.82-4.44,4.41-6.12,7.69-8.1c-11.45-1.91-17.25,5.24-21.04,12.34c-0.35-4.36,3.47-9.28,3.47-9.28
	c-14.04,5.79-11.97,21.62-11.97,21.62c-2.58-1.56-2.51-7.4-1.62-10.12c0,0-2.86,4.03-2.94,9.8c-0.09,5.83,4,12.04,4,12.04
	c-4.21-0.59-6.83-9.01-6.83-9.01c-2.3,11.84,7.81,21.38,7.81,21.38c-4.54-0.47-8.45-6.15-8.45-6.15
	C56.32,74.8,66.63,81.1,66.63,81.1c-3.22,0.66-7.94-2.56-7.94-2.56c3.96,8.99,9.82,13.3,9.82,13.3c-3.59,0.18-7.39-4.18-7.39-4.18
	c-0.32,4.18,2,9.69,2,9.69c-3.68-1.29-4.77-6.57-4.77-6.57c-3,4.21-2.41,10.46-2.41,10.46c-3.56-2.36-3.3-7.36-3.3-7.36
	c-3.48,1.74-5.49,8.65-5.49,8.65c-1.74-3.74,0.1-8.12,0.1-8.12c-4.83,1.24-7.89,6.95-7.89,6.95c-0.31-3.5,1.92-7.61,1.92-7.61
	c-3.8,0.12-7.05,5.52-7.05,5.52c-0.66-3.57,2.71-7.49,2.71-7.49c-4.18-0.44-7.77,4.04-7.77,4.04c-0.5-4.12,3.53-7.19,3.53-7.19
	c-4.45-1.06-7.77,2.88-7.77,2.88c-0.62-4.33,4.11-7.35,4.11-7.35c-3.56-1.53-7.44,1.64-7.44,1.64c-0.44-4.42,4.46-6.92,4.46-6.92
	c-3-2.06-6.95-0.04-6.95-0.04c0.65-3.62,5.15-4.59,5.15-4.59c-2.57-2.91-6.4-2.63-6.4-2.63c1.28-3.18,5.46-2.63,5.46-2.63
	c-2.01-2.86-5.69-3.84-5.69-3.84c2.3-1.94,5.56-0.6,5.56-0.6c-0.91-3.16-4.68-5.01-4.68-5.01c2.95-0.98,5.75,0.97,5.75,0.97
	c-0.35-2.88-3.42-5.55-3.42-5.55c3.42,0.15,5.77,2.64,5.77,2.64c-0.03-2.47-1.72-5.48-1.72-5.48c2.77,0.85,5.22,3.66,5.22,3.66
	c0.29-2.32-0.38-3.73-0.38-3.73c4.61,1.73,7.47,5.21,9.92,9.1c-1.25-7.17-5.77-12.33-12.95-12.95C14.22,47.13,6.24,61.31,6.27,71.71
	c0.03,12.12,4.14,20.19,9.55,28.05c6.28,9.12,17.15,16.15,27.32,18.25c-3.24,1.05-6.28,3.64-6.28,6.63
	c5.29,0.35,9.62,2.74,11.87,5.63h18.55c4.51,0,8.61-0.1,10.03-0.4c3.42-0.73,5.02-8.45,9.1-8.3c4.06,0.15,2.87,6.71-0.61,6.88
	c-1.13,0.06-1.67-0.48-2.63-0.81c3.67,8.79,14.59-1.15,9.5-7.29c5.93,0.24,5.54,7.91,1.42,8.7c6.47,0.63,8.35-5.81,5.37-10.46
	c-2.97-4.65-8.89-3.77-13.63-1.53c-4.74,2.24-9.01,3.98-12.17,4.38c-2.54,0.32-5.02,0.18-6.68-0.81c-4.84-2.87,3.78-7.64,5.87-8.9
	c7.65-4.64,15.8-10.21,16.59-21.24c0.59-8.23-2.51-12.52-5.06-17.6c-2.09-4.16-4.31-8.35-4.65-13.75
	c-0.47-7.35,4.96-12.83,11.53-12.54c9.22,0.39,13.94,7.73,14.57,17c0.24,3.67-0.56,8.04-0.81,11.73
	c-1.03,15.36,6.34,23.23,14.56,30.35c7.54,6.52,14.94,10.77,24.28,14.77c0.65,5.91,4.25,12.43,11.33,9.31
	c3.67,6.31,17.28,5.13,15.37-4.05c-0.89-4.28-7.21-4.91-6.77-9.8c0.21-2.33,2.89-3.59,5.35-2.75c2.61,0.9,3.84,4.86,3.64,7.69
	c4.08-6.81-0.08-16.74-8.49-14.77c-4.28,1-8.5,8.5-8.5,8.5c-5.43-2.94-10.62-5.85-10.62-5.85c12.47-0.62,20.36-6.13,24.98-14.59
	c6.02,1.39,10.09-2.75,8.5-7.69c0,0,5.26,1.62,5.86,5.93c0.6,4.31-5.15,5.29-8.4,3.19c0,0,2.76,6.59,8.04,5.3
	c5.29-1.29,4.71-6.9,3.56-9.13c-1.15-2.23-5.92-6.45-4.68-9.3c1.24-2.85,6.98-0.93,6.14,6.44c4.19-5.85,0.51-15.18-6.27-15.18
	c-5.02,0-7.01,4.28-8.3,8.7c0,0-1.62-0.63-3.44-0.2c-1.04-7.11-5.52-11.74-12.74-14.56c-6.46-2.53-12.74-6.91-13.35-13.96
	c-0.29-3.33,0.76-6.02,3.24-7.28c6.47-3.3,10.82,3.82,11.94,8.5c-0.07-5.5,2-8.14,4.45-10.93c-1.97-3.29-5.8-6.11-10.92-5.47
	c-3.55,0.45-6.98,2.37-6.98,2.37c1.67-3.81,4.58-10.55,11.02-10.87c5.23-0.25,7.78,4.36,9.31,8.9c0.86-8.58,5.44-14.52,9.71-19.02
	c-4.98,2.93-7.55-3.23-12.34-3.23c-6.84,0-10.16,7.56-15.98,8.29c-2.43,0.3-4.26-1.43-5.26-2.23
	C141.41,21.25,139.94,16.61,142.46,10.55"/>
<path fill="#1D1D1B" d="M233.19,131.49c-13.57,0-22.8-9.37-22.8-23.97c0-14.19,10.4-25.01,24.25-25.01c3.79,0,8.34,1.79,10.4,3.72
	l2.07-3.51h2.82l0.28,17.02h-1.65c-2.48-7.99-7.16-15.23-16.05-15.23c-7.03,0-13.85,6.82-13.85,22.46
	c0,12.47,7.51,20.94,16.53,20.94c8.41,0,12.33-4.34,15.02-10.33l1.79,0.96C249.17,124.95,243.66,131.49,233.19,131.49z"/>
<path fill="#1D1D1B" d="M269.29,131.42c-8.27,0-15.57-6.27-15.57-16.4c0-9.78,6.41-16.6,16.05-16.6s15.71,6.96,15.71,16.12
	S279.69,131.42,269.29,131.42z M269.7,100.01c-7.17,0-9.03,7.92-9.03,14.47c0,8.2,2.55,15.36,9.03,15.36
	c6.13,0,8.82-6.96,8.82-15.23C278.52,107.38,276.39,100.01,269.7,100.01z"/>
<path fill="#1D1D1B" d="M327.44,130.46v-1.38c1.24-0.07,2-0.21,2.96-0.48c1.31-0.41,1.86-1.58,1.86-3.1v-16.67
	c0-4.75-2.62-7.3-5.58-7.3c-5.03,0-7.58,3.31-8.4,4.75v18.88c0,1.52,0.55,2.62,1.79,3.17c0.96,0.41,1.79,0.69,3.03,0.76v1.38h-15.85
	v-1.38c1.24-0.07,1.86-0.21,2.82-0.48c1.31-0.41,1.86-1.58,1.86-3.1v-16.67c0-4.75-2.62-7.3-5.58-7.3c-5.03,0-7.58,3.38-8.41,4.82
	c0,3.86,0,18.74,0,18.74c0,1.52,0.62,2.62,1.86,3.17c1.03,0.48,1.86,0.76,3.1,0.83v1.38h-16.12v-1.38c1.24-0.07,2.07-0.21,3.03-0.48
	c1.31-0.41,1.86-1.58,1.86-3.1v-19.91c-0.14-1.45-0.76-2.62-1.86-3.38c-0.83-0.55-2.27-1.17-3.51-1.24v-1.31l11.09-0.76l0.48,0.48
	v4.75h0.21c2.69-2.62,5.17-5.72,11.09-5.72c4.27,0,7.3,2.34,8.89,5.93c2.82-2.69,5.51-5.93,11.44-5.93c6.41,0,9.09,4.75,9.09,11.02
	v15.71c0,1.52,0.55,2.62,1.79,3.17c0.96,0.41,2,0.69,3.24,0.76v1.38H327.44z"/>
<path fill="#1D1D1B" d="M363.41,131.29c-4,0-6.34-0.96-7.92-2.14h-0.28v11.23c0,1.52,0.69,2.76,1.93,3.24
	c1.03,0.41,3.51,0.96,4.75,1.04v1.38h-18.53v-1.38c1.24-0.07,2.82-0.35,3.79-0.62c1.31-0.41,1.79-1.72,1.79-3.24v-35.2
	c-0.14-1.45-0.69-2.69-1.79-3.45c-0.83-0.55-2.55-1.1-3.79-1.17v-1.31l11.3-0.76l0.48,0.41v3.51l0.28,0.07
	c1.58-1.72,4.96-4.48,9.3-4.48c7.92,0,14.33,6.61,14.33,16.74C379.04,124.6,371.54,131.29,363.41,131.29z M362.37,101.25
	c-3.31,0-5.51,1.52-7.17,3.45v19.63c0.76,2.21,3.1,5.51,7.65,5.51c5.24,0,9.16-5.3,9.16-14.74
	C372.02,108.21,369.33,101.25,362.37,101.25z"/>
<path fill="#1D1D1B" d="M406.05,130.6l-0.48-0.48v-4.2h-0.21c-2.62,2.62-5.1,5.38-11.02,5.38c-6.41,0-8.96-4.75-8.96-11.23v-14.47
	c-0.14-1.45-0.69-2.69-1.79-3.45c-0.83-0.55-2.21-1.03-3.45-1.1v-1.31l11.09-0.83l0.48,0.48v21.91c0,4.75,2.48,7.23,5.44,7.23
	c5.03,0,7.44-3.24,8.34-4.69v-18.46c-0.14-1.45-0.69-2.69-1.79-3.45c-0.83-0.55-2.69-0.83-4.48-0.9v-1.31l12.06-0.83l0.48,0.48
	v24.94c0.14,1.45,0.69,2.55,1.79,3.31c0.83,0.55,2.07,0.83,3.31,0.9v1.31L406.05,130.6z"/>
<path fill="#1D1D1B" d="M431.13,131.15c-5.65,0-8.34-3.38-8.34-9.51v-19.22h-6.61v-2.96h6.75V88.78h5.99v10.68h9.44v2.96H429v18.39
	c0,3.93,1.1,6.48,5.3,6.48c3.51,0,3.79-2.76,4.2-5.38h1.52C439.47,126.88,436.23,131.15,431.13,131.15z"/>
<path fill="#1D1D1B" d="M441.67,130.46v-1.38c1.24-0.07,2.07-0.21,3.03-0.48c1.31-0.41,1.86-1.72,1.86-3.1v-19.77
	c-0.14-1.45-0.76-2.69-1.86-3.45c-0.83-0.55-2.82-1.24-4.06-1.31v-1.31l11.71-0.76l0.48,0.48v25.7c0,1.45,0.62,2.62,1.86,3.17
	c1.1,0.48,2.14,0.76,3.03,0.83v1.38H441.67z M449.12,89.61c-2.27,0-4.2-1.93-4.2-4.2c0-2.34,1.93-4.34,4.2-4.34
	c2.55,0,4.34,1.86,4.34,4.06C453.46,87.54,451.6,89.61,449.12,89.61z"/>
<path fill="#1D1D1B" d="M480.05,130.46v-1.38c1.24-0.07,2.27-0.21,3.24-0.48c1.31-0.41,1.86-1.58,1.86-3.1v-16.6
	c0-4.75-2.76-7.37-5.72-7.37c-5.03,0-7.85,3.24-8.61,4.82v18.81c0,1.52,0.62,2.55,1.86,3.1c1.03,0.48,2.07,0.76,3.24,0.83v1.38
	h-16.26v-1.38c1.24-0.07,2.07-0.21,3.03-0.48c1.31-0.41,1.86-1.58,1.86-3.1v-19.77c-0.14-1.45-0.76-2.89-1.86-3.65
	c-0.83-0.55-2.14-1.04-3.38-1.1v-1.31l11.02-0.76l0.48,0.48v4.69h0.14c2.62-2.55,5.24-5.65,11.16-5.65c6.41,0,9.37,4.34,9.37,10.88
	v15.91c0,1.52,0.55,2.55,1.79,3.1c0.96,0.41,1.79,0.69,3.03,0.76v1.38H480.05z"/>
<path fill="#1D1D1B" d="M527.66,105.11c-2.27,0-2.96-1.52-2.96-4.41c-2.27,0-3.24,0.41-4.27,1.17v0.48
	c1.65,1.79,2.62,4.48,2.62,6.54c0,5.99-5.99,9.78-11.64,9.78h-4c-1.24,0.62-2.41,1.45-2.41,2.96c0,3.38,4,3.24,7.37,3.38
	c2,0.07,6.27,0.34,7.72,0.41c4.07,0.21,8.82,3.58,8.82,9.37c0,6.34-5.44,11.23-17.29,11.23c-10.88,0-15.02-3.17-15.02-8.4
	c0-3.86,3.58-7.1,10.88-7.3v-0.48c-2.69-0.76-7.23-2.21-7.23-6.13c0-3.38,3.86-4.68,6.13-5.58v-0.41c-4.82-1.93-7.79-5.1-7.79-9.16
	c0-6.34,5.51-10.13,12.33-10.13c4.75,0,8.54,2.07,9.44,2.07c2.55-1.58,4-2.07,6.96-2.07c1.65,0,3.24,1.45,3.24,3.31
	C530.55,103.73,529.52,105.11,527.66,105.11z M519.88,131.36c-1.52-0.21-4.48-0.48-10.68-0.48c-4.89,0.96-6.75,2.89-6.75,7.16
	c0,2.76,2.69,6.2,10.33,6.2c6.68,0,10.61-2.69,10.61-8.06C523.39,134.59,523.11,132.39,519.88,131.36z M510.71,99.94
	c-4.41,0-5.65,4-5.65,8.54c0,4.89,2.27,8.61,5.72,8.61c4.07,0,5.86-4,5.86-8.4C516.64,104.14,515.05,99.94,510.71,99.94z"/>
<path fill="#1D1D1B" d="M583.12,105.59c-2,2.27-4.34,8.96-8.61,14.12c1.86,2.34,5.44,5.92,7.17,6.96c2.41,1.45,6.2,2.14,8.96,2.27
	v1.52h-16.12l-4.82-5.92c-3.31,3.38-7.58,7.03-13.23,7.03c-6.48,0-13.16-3.45-13.16-11.37c0-6.54,3.86-10.4,11.57-15.29
	c-3.51-5.44-4.96-8.41-4.96-11.85c0-6.27,5.58-10.61,11.85-10.61c6.06,0,8.68,4.55,8.68,9.23c0,4.06-2.89,8.06-8.47,11.44
	c4.2,6.2,7.1,9.85,11.37,15.16c2.96-4.2,5.58-9.37,5.58-12.54c0-1.65-2.62-2.76-6.2-3.51v-1.45h19.77v1.45
	C588.56,102.63,585.33,103.11,583.12,105.59z M555.91,106.28c-4.06,2.55-5.51,6.41-5.51,11.02c0,5.65,3.31,9.99,9.03,9.99
	c3.44,0,6.75-1.45,9.02-4.2C564.59,117.92,558.87,110.76,555.91,106.28z M561.9,84.58c-4.55,0-5.37,4.48-5.37,6.48
	c0,2.96,1.24,6.13,4.48,10.61c4.41-2.69,6.27-5.86,6.27-10.2C567.28,86.99,564.93,84.58,561.9,84.58z"/>
<path fill="#1D1D1B" d="M211,202.46v-1.52c1.24-0.07,4.13-0.34,5.03-0.69c1.65-0.62,2.14-1.79,2.14-3.31v-35.48
	c0-1.52-0.41-2.62-2.14-3.31c-1.24-0.48-3.79-1.17-5.03-1.24v-1.52h21.63v1.52c-1.24,0.07-3.79,0.48-5.03,0.89
	c-1.72,0.55-2.14,1.79-2.14,3.31v35.48c0,1.52,0.55,2.62,2.14,3.31c0.83,0.35,3.79,0.96,5.03,1.03v1.52H211z"/>
<path fill="#1D1D1B" d="M254.75,202.46v-1.38c1.24-0.07,2.27-0.21,3.24-0.48c1.31-0.41,1.86-1.58,1.86-3.1v-16.6
	c0-4.75-2.76-7.37-5.72-7.37c-5.03,0-7.85,3.24-8.61,4.82v18.81c0,1.52,0.62,2.55,1.86,3.1c1.03,0.48,2.07,0.76,3.24,0.83v1.38
	h-16.26v-1.38c1.24-0.07,2.07-0.21,3.03-0.48c1.31-0.41,1.86-1.58,1.86-3.1v-19.77c-0.14-1.45-0.76-2.89-1.86-3.65
	c-0.83-0.55-2.14-1.04-3.38-1.1v-1.31l11.02-0.76l0.48,0.48v4.69h0.14c2.62-2.55,5.24-5.65,11.16-5.65c6.41,0,9.37,4.34,9.37,10.88
	v15.91c0,1.52,0.55,2.55,1.79,3.1c0.96,0.41,1.79,0.69,3.03,0.76v1.38H254.75z"/>
<path fill="#1D1D1B" d="M296.3,160.64c-1.58,0-4-0.76-4-3.1c0-1.03,0.41-2.14,0.41-3.65c-0.28-0.83-0.9-1.31-1.65-1.31
	c-4.34,0-6.48,4.13-6.82,14.68c0,1.03-0.07,3.03-0.07,4.2h8.68v2.89h-8.68v22.8c0,1.45,0.62,2.62,1.86,3.1
	c1.03,0.41,3.24,0.76,4.48,0.83v1.38h-17.5v-1.38c1.24-0.07,2.07-0.21,3.03-0.48c1.31-0.41,1.86-1.58,1.86-3.1v-23.15h-7.03v-2.89
	h7.03v-2.13c0-5.72,1.31-10.54,4.68-14.12c2.82-3.03,6.61-4.2,10.13-4.2c5.17,0,7.3,3.1,7.3,6.06
	C300.02,158.37,298.71,160.64,296.3,160.64z"/>
<path fill="#1D1D1B" d="M308.49,203.42c-8.27,0-15.57-6.27-15.57-16.4c0-9.78,6.41-16.6,16.05-16.6s15.71,6.96,15.71,16.12
	S318.9,203.42,308.49,203.42z M308.91,172.01c-7.17,0-9.03,7.92-9.03,14.47c0,8.2,2.55,15.36,9.03,15.36
	c6.13,0,8.82-6.96,8.82-15.23C317.73,179.38,315.59,172.01,308.91,172.01z"/>
<path fill="#1D1D1B" d="M348.11,179.11c-2.21,0-3.72-0.96-3.72-3.31c0-0.69,0.48-1.24,0.48-2.13c-3.51,0-6.06,2.96-6.89,4.48v19.01
	c0,1.52,0.62,2.62,1.86,3.1c1.17,0.48,3.17,0.76,4.48,0.83v1.38h-17.5v-1.38c1.24-0.07,2.07-0.21,3.03-0.48
	c1.31-0.41,1.86-1.58,1.86-3.1v-19.77c-0.14-1.45-0.76-2.89-1.86-3.65c-0.83-0.55-2.14-1.04-3.38-1.1v-1.31l11.02-0.76l0.48,0.48
	v4.69h0.14c2.96-3.79,6.41-5.51,9.3-5.51c2.14,0,4.34,1.93,4.34,4.2C351.76,177.18,350.45,179.11,348.11,179.11z"/>
<path fill="#1D1D1B" d="M394.06,202.46v-1.38c1.24-0.07,2-0.21,2.96-0.48c1.31-0.41,1.86-1.58,1.86-3.1v-16.67
	c0-4.75-2.62-7.3-5.58-7.3c-5.03,0-7.58,3.31-8.41,4.75v18.88c0,1.52,0.55,2.62,1.79,3.17c0.96,0.41,1.79,0.69,3.03,0.76v1.38
	h-15.85v-1.38c1.24-0.07,1.86-0.21,2.83-0.48c1.31-0.41,1.86-1.58,1.86-3.1v-16.67c0-4.75-2.62-7.3-5.58-7.3
	c-5.03,0-7.58,3.38-8.41,4.82c0,3.86,0,18.74,0,18.74c0,1.52,0.62,2.62,1.86,3.17c1.03,0.48,1.86,0.76,3.1,0.83v1.38h-16.12v-1.38
	c1.24-0.07,2.07-0.21,3.03-0.48c1.31-0.41,1.86-1.58,1.86-3.1v-19.91c-0.14-1.45-0.76-2.62-1.86-3.38
	c-0.83-0.55-2.27-1.17-3.51-1.24v-1.31l11.09-0.76l0.48,0.48v4.75h0.21c2.69-2.62,5.17-5.72,11.09-5.72c4.27,0,7.3,2.34,8.89,5.93
	c2.82-2.69,5.51-5.93,11.44-5.93c6.41,0,9.09,4.75,9.09,11.02v15.71c0,1.52,0.55,2.62,1.79,3.17c0.96,0.41,2,0.69,3.24,0.76v1.38
	H394.06z"/>
<path fill="#1D1D1B" d="M436.02,203.15c-3.24,0-4.96-1.45-6.06-4.62h-0.21c-2.48,2.89-6.06,4.75-10.2,4.75
	c-4.75,0-7.99-2.89-7.99-7.3c0-5.65,3.31-7.58,6.75-8.89c3.93-1.52,8.68-2.69,11.57-4.34v-3.86c0-1.24-0.21-6.96-5.92-6.96
	c-2.62,0-3.58,1.58-4.2,2.34c0,1.04,0.62,2.55,0.62,4.07c0,1.45-1.52,2.96-4,2.96c-2.27,0-3.1-1.79-3.1-3.58
	c0-4.13,5.86-7.3,11.09-7.3c6.82,0,11.85,1.03,11.85,10.2c0,6.06-0.34,13.16-0.34,15.43c0,1.03,0.96,3.51,3.24,3.51
	s2.48-2.69,2.69-5.3h1.52C442.91,200.67,440.3,203.15,436.02,203.15z M418.25,194.95c0,3.79,1.72,5.51,4.68,5.51
	c3.58,0,5.1-1.58,6.75-3.65l0.28-12.06C423.07,186.89,418.25,188.82,418.25,194.95z"/>
<path fill="#1D1D1B" d="M455.32,203.15c-5.65,0-8.34-3.38-8.34-9.51v-19.22h-6.61v-2.96h6.75v-10.68h5.99v10.68h9.44v2.96h-9.37
	v18.39c0,3.93,1.1,6.48,5.3,6.48c3.51,0,3.79-2.76,4.2-5.38h1.52C463.65,198.88,460.42,203.15,455.32,203.15z"/>
<path fill="#1D1D1B" d="M465.86,202.46v-1.38c1.24-0.07,2.07-0.21,3.03-0.48c1.31-0.41,1.86-1.72,1.86-3.1v-19.77
	c-0.14-1.45-0.76-2.69-1.86-3.45c-0.83-0.55-2.82-1.24-4.06-1.31v-1.31l11.71-0.76l0.48,0.48v25.7c0,1.45,0.62,2.62,1.86,3.17
	c1.1,0.48,2.14,0.76,3.03,0.83v1.38H465.86z M473.3,161.61c-2.27,0-4.2-1.93-4.2-4.2c0-2.34,1.93-4.34,4.2-4.34
	c2.55,0,4.34,1.86,4.34,4.06C477.64,159.54,475.78,161.61,473.3,161.61z"/>
<path fill="#1D1D1B" d="M497.55,203.29c-9.99,0-14.95-7.03-14.95-16.54c0-8.47,5.86-16.33,15.29-16.33c7.1,0,10.68,3.79,10.68,7.99
	c0,2.27-1.17,3.86-3.58,3.86c-1.38,0-3.86-0.76-3.86-3.45c0-2.89,0.9-2.96,0.9-4.27c-0.34-2-1.72-2.48-4.13-2.48
	c-4.06,0-8.34,3.65-8.34,14.05c0,8.06,3.58,14.12,9.64,14.12c4.89,0,7.51-2.14,9.78-6.13l1.31,0.96
	C507.75,199.63,502.99,203.29,497.55,203.29z"/>
<path fill="#1D1D1B" d="M523.11,203.42c-3.38,0-7.03-1.58-8.2-2.76l-0.69,2.14h-2.27l-0.34-10.68h1.45
	c0.76,3.38,4.89,9.65,10.4,9.65c4.82,0,6.48-2.55,6.48-5.93c0-3.58-2.69-5.03-8.06-6.61c-4.41-1.31-9.37-3.86-9.37-9.78
	c0-5.1,3.93-9.03,10.33-9.03c2.69,0,5.44,0.62,7.17,1.79l0.55-1.86h2.14l0.48,9.51h-1.45c-0.69-3.93-4.2-7.86-9.09-7.86
	c-4.2,0-5.37,2.41-5.37,4.96c0,3.93,2.34,4.69,8.06,6.54c5.65,1.86,9.37,4.41,9.37,10.06C534.69,199.7,529.59,203.42,523.11,203.42z
	"/>
</svg>
