<?xml version="1.0" encoding="utf-8"?>
<!DOCTYPE svg PUBLIC "-//W3C//DTD SVG 1.1//EN" "http://www.w3.org/Graphics/SVG/1.1/DTD/svg11.dtd">
<svg version="1.1" id="Layer_1" xmlns="http://www.w3.org/2000/svg" xmlns:xlink="http://www.w3.org/1999/xlink" x="0px" y="0px"
	 width="792px" height="360px" viewBox="0 0 792 360" enable-background="new 0 0 792 360" xml:space="preserve">
<path fill="#43745D" d="M141.81,184.25c0-4.53,3.67-8.2,8.2-8.2c4.53,0,8.2,3.67,8.2,8.2c0,4.53-3.67,8.19-8.2,8.19
	C145.48,192.44,141.81,188.78,141.81,184.25z"/>
<path fill="#43745D" d="M122.86,184.25c0-4.07,3.3-7.38,7.37-7.38c4.08,0,7.38,3.3,7.38,7.38c0,4.07-3.31,7.37-7.38,7.37
	C126.16,191.62,122.86,188.32,122.86,184.25z"/>
<path fill="#43745D" d="M104.57,184.25c0-3.67,2.98-6.64,6.65-6.64c3.67,0,6.63,2.97,6.63,6.64c0,3.67-2.97,6.64-6.63,6.64
	C107.54,190.89,104.57,187.92,104.57,184.25z"/>
<path fill="#43745D" d="M86.39,184.25c0-3.3,2.68-5.98,5.98-5.98c3.3,0,5.97,2.68,5.97,5.98c0,3.3-2.67,5.97-5.97,5.97
	C89.07,190.22,86.39,187.55,86.39,184.25z"/>
<path fill="#43745D" d="M67.96,184.25c0-2.97,2.41-5.38,5.38-5.38c2.97,0,5.38,2.41,5.38,5.38c0,2.97-2.41,5.38-5.38,5.38
	C70.38,189.63,67.96,187.22,67.96,184.25z"/>
<path fill="#43745D" d="M49.1,184.25c0-2.68,2.17-4.84,4.84-4.84c2.67,0,4.84,2.16,4.84,4.84c0,2.67-2.17,4.84-4.84,4.84
	C51.27,189.09,49.1,186.92,49.1,184.25z"/>
<path fill="#43745D" d="M176.59,147.41c4.53,0,8.2,3.67,8.2,8.19c0,4.53-3.68,8.2-8.2,8.2c-4.52,0-8.19-3.67-8.19-8.2
	C168.4,151.09,172.07,147.41,176.59,147.41z"/>
<path fill="#43745D" d="M176.59,128.46c4.07,0,7.38,3.31,7.38,7.38c0,4.08-3.3,7.38-7.38,7.38c-4.07,0-7.37-3.3-7.37-7.38
	C169.22,131.76,172.52,128.46,176.59,128.46z"/>
<path fill="#43745D" d="M176.59,110.17c3.67,0,6.64,2.97,6.64,6.64c0,3.67-2.97,6.64-6.64,6.64c-3.67,0-6.64-2.97-6.64-6.64
	C169.96,113.14,172.93,110.17,176.59,110.17z"/>
<path fill="#43745D" d="M176.59,91.99c3.3,0,5.98,2.68,5.98,5.98c0,3.31-2.68,5.98-5.98,5.98c-3.3,0-5.98-2.67-5.98-5.98
	C170.62,94.67,173.29,91.99,176.59,91.99z"/>
<path fill="#43745D" d="M176.59,73.57c2.97,0,5.38,2.41,5.38,5.38c0,2.97-2.41,5.38-5.38,5.38c-2.97,0-5.38-2.41-5.38-5.38
	C171.22,75.98,173.63,73.57,176.59,73.57z"/>
<path fill="#43745D" d="M176.59,54.7c2.68,0,4.85,2.17,4.85,4.84c0,2.68-2.17,4.83-4.85,4.83c-2.67,0-4.84-2.16-4.84-4.83
	C171.75,56.87,173.92,54.7,176.59,54.7z"/>
<path fill="#43745D" d="M128.77,162c1.54-3.34,5.48-4.8,8.81-3.26c3.33,1.53,4.79,5.47,3.25,8.81c-1.53,3.34-5.47,4.79-8.8,3.26
	C128.69,169.27,127.24,165.33,128.77,162z"/>
<path fill="#43745D" d="M112.26,154.39c1.38-2.99,4.94-4.31,7.93-2.92c3,1.38,4.31,4.93,2.93,7.92c-1.38,3-4.93,4.32-7.92,2.93
	C112.2,160.94,110.88,157.39,112.26,154.39z"/>
<path fill="#43745D" d="M95.52,146.68c1.24-2.69,4.44-3.87,7.14-2.63c2.69,1.24,3.89,4.43,2.64,7.13c-1.25,2.7-4.44,3.89-7.14,2.64
	C95.47,152.57,94.28,149.39,95.52,146.68z"/>
<path fill="#43745D" d="M78.39,138.8c1.12-2.43,4-3.5,6.43-2.38c2.42,1.12,3.49,3.99,2.37,6.42c-1.12,2.44-4,3.49-6.42,2.37
	C78.34,144.11,77.27,141.22,78.39,138.8z"/>
<path fill="#43745D" d="M157.03,134.18c3.48-1.18,7.25,0.68,8.42,4.16c1.18,3.47-0.69,7.24-4.16,8.42
	c-3.47,1.18-7.24-0.68-8.42-4.15C151.69,139.12,153.56,135.36,157.03,134.18z"/>
<path fill="#43745D" d="M151.19,116.96c3.12-1.06,6.53,0.62,7.58,3.75c1.06,3.12-0.62,6.52-3.75,7.57
	c-3.12,1.07-6.52-0.61-7.57-3.73C146.39,121.42,148.07,118.02,151.19,116.96z"/>
<path fill="#43745D" d="M145.27,99.51c2.81-0.95,5.87,0.55,6.82,3.37c0.96,2.8-0.54,5.86-3.36,6.82c-2.82,0.95-5.87-0.55-6.82-3.37
	C140.96,103.52,142.46,100.46,145.27,99.51z"/>
<path fill="#43745D" d="M139.21,81.65c2.53-0.85,5.29,0.5,6.15,3.03c0.85,2.53-0.5,5.28-3.04,6.14c-2.53,0.87-5.28-0.5-6.13-3.04
	C135.33,85.26,136.69,82.5,139.21,81.65z"/>
<path fill="#43745D" d="M150.72,157.58c-3.21,3.2-3.21,8.39-0.01,11.59c3.19,3.21,8.39,3.2,11.59,0.01
	c3.21-3.2,3.21-8.39,0.01-11.59C159.12,154.39,153.93,154.38,150.72,157.58z"/>
<path fill="#43745D" d="M137.33,144.17c-2.89,2.88-2.89,7.55-0.01,10.44c2.88,2.88,7.55,2.88,10.43,0.01
	c2.89-2.88,2.89-7.56,0.01-10.44C144.88,141.29,140.21,141.29,137.33,144.17z"/>
<path fill="#43745D" d="M124.41,131.23c-2.6,2.59-2.6,6.79-0.01,9.39c2.6,2.59,6.8,2.59,9.4,0c2.6-2.6,2.6-6.8,0-9.39
	C131.21,128.64,127,128.64,124.41,131.23z"/>
<path fill="#43745D" d="M111.56,118.37c-2.33,2.34-2.34,6.12-0.01,8.46c2.33,2.34,6.12,2.34,8.46,0c2.33-2.33,2.34-6.12,0-8.45
	C117.68,116.04,113.89,116.03,111.56,118.37z"/>
<path fill="#43745D" d="M98.53,105.33c-2.1,2.11-2.1,5.51-0.01,7.62c2.1,2.09,5.5,2.09,7.61,0c2.1-2.11,2.1-5.5,0.01-7.6
	C104.04,103.24,100.64,103.24,98.53,105.33z"/>
<path fill="#43745D" d="M85.2,91.98c-1.89,1.9-1.89,4.96,0,6.86c1.89,1.89,4.95,1.88,6.84-0.01c1.89-1.88,1.9-4.95,0-6.84
	C90.16,90.1,87.09,90.1,85.2,91.98z"/>
<path fill="#43745D" d="M176.69,221.53c-4.53,0-8.2-3.67-8.2-8.2c0-4.53,3.67-8.19,8.2-8.19c4.53,0,8.2,3.67,8.2,8.19
	C184.89,217.86,181.22,221.53,176.69,221.53z"/>
<circle fill="#43745D" cx="176.69" cy="233.11" r="7.38"/>
<path fill="#43745D" d="M176.69,258.78c-3.67,0-6.64-2.97-6.64-6.65c0-3.67,2.97-6.63,6.64-6.63c3.67,0,6.64,2.97,6.64,6.63
	C183.33,255.81,180.36,258.78,176.69,258.78z"/>
<circle fill="#43745D" cx="176.69" cy="270.98" r="5.98"/>
<path fill="#43745D" d="M176.69,295.38c-2.97,0-5.38-2.41-5.38-5.38c0-2.97,2.41-5.38,5.38-5.38c2.97,0,5.38,2.41,5.38,5.38
	C182.07,292.97,179.66,295.38,176.69,295.38z"/>
<path fill="#43745D" d="M176.69,314.24c-2.67,0-4.84-2.17-4.84-4.84c0-2.67,2.16-4.84,4.84-4.84c2.67,0,4.84,2.17,4.84,4.84
	C181.53,312.07,179.36,314.24,176.69,314.24z"/>
<path fill="#43745D" d="M156.77,233.02c-3.34-1.54-4.8-5.48-3.26-8.81c1.53-3.33,5.47-4.79,8.81-3.26c3.33,1.54,4.78,5.47,3.25,8.81
	C164.05,233.1,160.1,234.55,156.77,233.02z"/>
<path fill="#43745D" d="M149.16,249.53c-2.99-1.38-4.31-4.94-2.93-7.93c1.38-3,4.93-4.31,7.93-2.93c3,1.38,4.32,4.93,2.93,7.92
	C155.71,249.59,152.17,250.91,149.16,249.53z"/>
<path fill="#43745D" d="M141.46,266.27c-2.69-1.24-3.87-4.44-2.63-7.14c1.24-2.69,4.43-3.88,7.13-2.64
	c2.71,1.25,3.89,4.44,2.64,7.14C147.35,266.32,144.16,267.51,141.46,266.27z"/>
<path fill="#43745D" d="M133.58,283.4c-2.43-1.12-3.5-3.99-2.38-6.42c1.12-2.42,4-3.49,6.43-2.37c2.43,1.12,3.49,3.99,2.37,6.42
	C138.88,283.45,136,284.52,133.58,283.4z"/>
<path fill="#43745D" d="M128.64,205.23c-1.18-3.48,0.68-7.26,4.16-8.42c3.47-1.18,7.24,0.69,8.41,4.16
	c1.18,3.47-0.68,7.24-4.15,8.42C133.59,210.57,129.82,208.7,128.64,205.23z"/>
<path fill="#43745D" d="M111.42,211.06c-1.06-3.12,0.62-6.53,3.75-7.58c3.12-1.06,6.52,0.62,7.57,3.74
	c1.07,3.13-0.61,6.52-3.73,7.57C115.88,215.86,112.49,214.19,111.42,211.06z"/>
<path fill="#43745D" d="M93.98,216.98c-0.95-2.81,0.56-5.87,3.37-6.82c2.8-0.96,5.86,0.54,6.82,3.36c0.95,2.82-0.55,5.87-3.38,6.82
	C97.99,221.29,94.92,219.8,93.98,216.98z"/>
<path fill="#43745D" d="M76.11,223.04c-0.85-2.53,0.5-5.29,3.03-6.15c2.53-0.85,5.28,0.5,6.14,3.03c0.87,2.54-0.5,5.29-3.04,6.14
	C79.72,226.92,76.97,225.56,76.11,223.04z"/>
<path fill="#43745D" d="M151.12,210.13c3.2,3.21,8.39,3.22,11.6,0.01c3.21-3.19,3.2-8.39,0.01-11.59c-3.2-3.2-8.39-3.2-11.59,0
	C147.92,201.74,147.91,206.92,151.12,210.13z"/>
<path fill="#43745D" d="M137.71,223.52c2.88,2.89,7.55,2.89,10.44,0.01c2.88-2.88,2.88-7.54,0.01-10.42
	c-2.88-2.89-7.56-2.89-10.44-0.01C134.82,215.98,134.82,220.65,137.71,223.52z"/>
<path fill="#43745D" d="M124.77,236.45c2.59,2.59,6.79,2.6,9.39,0.01c2.6-2.59,2.6-6.79,0-9.4c-2.6-2.59-6.8-2.59-9.39,0
	C122.18,229.65,122.17,233.86,124.77,236.45z"/>
<path fill="#43745D" d="M111.9,249.3c2.34,2.33,6.12,2.34,8.45,0.01c2.34-2.33,2.34-6.12,0.01-8.46c-2.33-2.33-6.12-2.34-8.45,0
	C109.57,243.18,109.56,246.96,111.9,249.3z"/>
<path fill="#43745D" d="M98.86,262.32c2.1,2.11,5.51,2.1,7.61,0.01c2.1-2.1,2.1-5.5,0-7.61c-2.11-2.1-5.5-2.1-7.61-0.01
	C96.77,256.81,96.77,260.22,98.86,262.32z"/>
<path fill="#43745D" d="M85.52,275.66c1.89,1.89,4.96,1.89,6.86,0c1.89-1.89,1.88-4.95-0.01-6.84c-1.88-1.89-4.95-1.89-6.84-0.01
	C83.63,270.7,83.63,273.77,85.52,275.66z"/>
<path fill="#1D1D1B" d="M255.15,188.22c-0.3-6.49-0.67-14.26-0.6-21.12h-0.22c-1.64,6.12-3.73,12.91-5.97,19.26l-7.39,21.8h-7.02
	l-6.72-21.5c-1.94-6.42-3.73-13.29-5.08-19.56h-0.15c-0.22,6.57-0.52,14.56-0.9,21.42l-1.12,20.23h-8.58l3.36-50.31h12.09
	l6.57,20.23c1.79,5.9,3.36,11.87,4.63,17.47h0.22c1.34-5.45,3.06-11.64,5-17.54l6.94-20.15h11.94l2.91,50.31h-8.96L255.15,188.22z"
	/>
<path fill="#1D1D1B" d="M303.6,197.85c0,4.33,0.15,7.91,0.3,10.9h-7.99l-0.45-5.45h-0.22c-1.57,2.54-5.15,6.27-11.72,6.27
	c-6.57,0-12.61-3.96-12.61-15.83V172.4h9.18v19.78c0,6.05,1.94,9.93,6.79,9.93c3.73,0,6.12-2.54,7.02-4.93
	c0.37-0.75,0.52-1.79,0.52-2.84V172.4h9.18V197.85z"/>
<path fill="#1D1D1B" d="M311.43,200.24c2.02,1.27,5.97,2.69,9.26,2.69c4.03,0,5.82-1.72,5.82-4.11c0-2.46-1.49-3.66-5.97-5.3
	c-7.09-2.39-10-6.27-10-10.6c0-6.42,5.3-11.35,13.73-11.35c4.03,0,7.54,0.97,9.7,2.16l-1.87,6.42c-1.49-0.9-4.48-2.09-7.69-2.09
	c-3.28,0-5.08,1.64-5.08,3.88c0,2.31,1.72,3.36,6.34,5.08c6.64,2.31,9.63,5.67,9.7,11.05c0,6.64-5.15,11.42-14.78,11.42
	c-4.4,0-8.36-1.04-11.05-2.54L311.43,200.24z"/>
<path fill="#1D1D1B" d="M347.71,193.15c0.22,6.57,5.37,9.41,11.2,9.41c4.25,0,7.24-0.67,10.08-1.64l1.34,6.27
	c-3.13,1.34-7.46,2.31-12.69,2.31c-11.79,0-18.74-7.24-18.74-18.36c0-10.08,6.12-19.56,17.77-19.56c11.79,0,15.68,9.7,15.68,17.69
	c0,1.72-0.15,3.06-0.3,3.88H347.71z M363.68,186.73c0.07-3.36-1.42-8.88-7.54-8.88c-5.67,0-8.06,5.15-8.44,8.88H363.68z"/>
<path fill="#1D1D1B" d="M410.56,197.85c0,4.33,0.15,7.91,0.3,10.9h-7.99l-0.45-5.45h-0.22c-1.57,2.54-5.15,6.27-11.72,6.27
	c-6.57,0-12.61-3.96-12.61-15.83V172.4h9.18v19.78c0,6.05,1.94,9.93,6.79,9.93c3.73,0,6.12-2.54,7.02-4.93
	c0.37-0.75,0.52-1.79,0.52-2.84V172.4h9.18V197.85z"/>
<path fill="#1D1D1B" d="M417.5,183.22c0-4.18-0.15-7.69-0.3-10.82h7.84l0.45,5.37h0.22c1.72-2.84,5-6.2,11.2-6.2
	c4.78,0,8.51,2.69,10.08,6.72h0.15c1.27-2.02,2.76-3.51,4.4-4.55c2.09-1.42,4.4-2.16,7.46-2.16c5.97,0,12.09,4.11,12.09,15.75v21.42
	h-8.96v-20.08c0-6.05-2.09-9.63-6.49-9.63c-3.13,0-5.45,2.24-6.42,4.85c-0.3,0.82-0.45,2.02-0.45,3.06v21.8h-8.96V187.7
	c0-5.08-2.02-8.66-6.27-8.66c-3.43,0-5.75,2.69-6.64,5.15c-0.3,0.97-0.45,2.01-0.45,3.06v21.5h-8.96V183.22z"/>
<path fill="#1D1D1B" d="M490.78,204.82c0,1.48,0.07,2.92,0.27,3.93h-3.73l-0.3-1.81h-0.1c-0.97,1.28-2.69,2.18-4.84,2.18
	c-3.29,0-5.14-2.38-5.14-4.87c0-4.1,3.66-6.21,9.71-6.18v-0.27c0-1.08-0.44-2.86-3.33-2.86c-1.61,0-3.29,0.5-4.4,1.21l-0.81-2.69
	c1.21-0.74,3.33-1.44,5.91-1.44c5.24,0,6.75,3.33,6.75,6.92V204.82z M486.75,200.75c-2.92-0.03-5.71,0.57-5.71,3.06
	c0,1.61,1.04,2.35,2.35,2.35c1.68,0,2.86-1.08,3.26-2.25c0.1-0.3,0.1-0.6,0.1-0.91V200.75z"/>
<path fill="#1D1D1B" d="M495.15,197.26c0-1.88-0.07-3.46-0.13-4.87h3.59l0.2,2.45h0.1c0.74-1.28,2.52-2.82,5.24-2.82
	c2.86,0,5.81,1.85,5.81,7.02v9.71h-4.13v-9.24c0-2.35-0.87-4.13-3.12-4.13c-1.65,0-2.79,1.17-3.22,2.42
	c-0.13,0.34-0.2,0.84-0.2,1.31v9.64h-4.13V197.26z"/>
<path fill="#1D1D1B" d="M529.44,184.87v19.28c0,1.68,0.07,3.49,0.13,4.6h-3.66l-0.2-2.59h-0.07c-0.97,1.81-2.96,2.96-5.31,2.96
	c-3.93,0-7.02-3.33-7.02-8.36c-0.03-5.48,3.39-8.73,7.32-8.73c2.25,0,3.86,0.91,4.6,2.12h0.07v-9.27H529.44z M525.31,199.21
	c0-0.34-0.03-0.77-0.1-1.11c-0.37-1.58-1.68-2.89-3.56-2.89c-2.65,0-4.13,2.35-4.13,5.37c0,3.02,1.48,5.21,4.1,5.21
	c1.68,0,3.16-1.14,3.56-2.92c0.1-0.37,0.13-0.77,0.13-1.21V199.21z"/>
<path fill="#1D1D1B" d="M536.96,158.44h9.18v42.62h20.68v7.69h-29.86V158.44z"/>
<path fill="#1D1D1B" d="M576.45,167.17c-3.06,0-5.08-2.24-5.08-4.93c0-2.84,2.09-5,5.15-5c3.13,0,5.08,2.16,5.15,5
	c0,2.69-2.02,4.93-5.15,4.93H576.45z M571.89,208.75V172.4h9.18v36.35H571.89z"/>
<path fill="#1D1D1B" d="M588.02,155.68h9.18v21.72h0.15c2.24-3.51,6.2-5.82,11.64-5.82c8.88,0,15.23,7.39,15.15,18.44
	c0,13.06-8.29,19.56-16.5,19.56c-4.7,0-8.88-1.79-11.5-6.27H596l-0.45,5.45h-7.84c0.15-2.46,0.3-6.49,0.3-10.15V155.68z
	 M597.2,193.74c0,0.75,0.08,1.49,0.22,2.17c0.97,3.73,4.18,6.42,8.14,6.42c5.75,0,9.26-4.55,9.26-11.94
	c0-6.42-3.06-11.64-9.18-11.64c-3.73,0-7.17,2.69-8.14,6.72c-0.15,0.67-0.3,1.49-0.3,2.39V193.74z"/>
<path fill="#1D1D1B" d="M630.19,184.12c0-4.93-0.08-8.51-0.3-11.72h7.91l0.37,6.87h0.22c1.79-5.08,6.05-7.69,10-7.69
	c0.9,0,1.42,0.07,2.17,0.22v8.58c-0.82-0.15-1.64-0.22-2.76-0.22c-4.33,0-7.39,2.76-8.21,6.94c-0.15,0.82-0.22,1.79-0.22,2.76v18.88
	h-9.18V184.12z"/>
<path fill="#1D1D1B" d="M683.49,200.01c0,3.28,0.15,6.49,0.6,8.73h-8.29l-0.67-4.03h-0.22c-2.17,2.84-5.97,4.85-10.75,4.85
	c-7.32,0-11.42-5.3-11.42-10.82c0-9.11,8.14-13.81,21.57-13.74v-0.6c0-2.39-0.97-6.34-7.39-6.34c-3.58,0-7.31,1.12-9.78,2.69
	l-1.79-5.97c2.69-1.64,7.39-3.21,13.14-3.21c11.64,0,15,7.39,15,15.38V200.01z M674.53,190.98c-6.49-0.07-12.69,1.27-12.69,6.79
	c0,3.58,2.31,5.22,5.22,5.22c3.73,0,6.34-2.39,7.24-5c0.22-0.67,0.22-1.34,0.22-2.01V190.98z"/>
<path fill="#1D1D1B" d="M690.2,184.12c0-4.93-0.08-8.51-0.3-11.72h7.91l0.37,6.87h0.22c1.79-5.08,6.05-7.69,10-7.69
	c0.9,0,1.42,0.07,2.17,0.22v8.58c-0.82-0.15-1.64-0.22-2.76-0.22c-4.33,0-7.39,2.76-8.21,6.94c-0.15,0.82-0.22,1.79-0.22,2.76v18.88
	h-9.18V184.12z"/>
<path fill="#1D1D1B" d="M722.75,172.4l6.49,19.48c0.75,2.24,1.57,5,2.09,7.02h0.22c0.52-2.01,1.19-4.78,1.94-7.09l5.67-19.41h9.78
	l-9.11,24.78c-5,13.59-8.36,19.63-12.62,23.36c-3.66,3.13-7.39,4.33-9.63,4.63l-2.09-7.69c1.57-0.37,3.43-1.19,5.3-2.54
	c1.72-1.12,3.81-3.28,5.08-5.75c0.3-0.67,0.52-1.19,0.52-1.64c0-0.37-0.07-0.9-0.45-1.79l-13.36-33.37H722.75z"/>
<path fill="#1D1D1B" d="M274,160.56c-1.21-0.05-1.55-0.05-2.81,0.05l-0.29-0.29c0.05-2.33,0.05-4.37,0.05-6.02
	c0-1.02,0-13-0.34-19.7l0.34-0.34c1.12,0.05,1.5,0.05,2.81-0.05l0.29,0.34v1.07c-0.05,2.18-0.05,4.32-0.05,6.5
	c0,7.08,0.15,12.61,0.29,18.15L274,160.56z"/>
<path fill="#1D1D1B" d="M301.75,160.56c-0.44,0-0.92-0.05-1.41-0.05c-0.34,0-1.99,0.1-2.28,0.1l-0.39-0.19
	c-1.26-1.99-2.43-3.98-3.64-5.97l-9.99-17.08l0.1,5.05c0.1,11.98,0.15,13.34,0.29,17.81l-0.29,0.34c-1.02,0-1.41,0-2.43,0.05
	l-0.29-0.29c0-0.73,0-16.74-0.1-20.43c0-0.82-0.15-5-0.15-5.29l0.29-0.34c1.02,0,2.67-0.05,3.69-0.05l0.39,0.24
	c1.16,1.79,1.46,2.28,3.88,6.4c1.55,2.67,3.11,5.29,4.71,7.91l5.05,8.69v-5c-0.05-4.27-0.1-12.52-0.34-17.85l0.29-0.34
	c1.16,0,1.26,0,2.33-0.05l0.34,0.29c-0.05,2.28-0.05,4.27-0.05,5.92c0,6.74,0.05,13.49,0.34,19.84L301.75,160.56z"/>
<path fill="#1D1D1B" d="M308.06,155.86c1.36,2.09,4.12,2.86,6.11,2.86c3.49,0,6.11-1.99,6.11-5c0-2.09-1.26-3.2-3.06-4.12
	c-0.73-0.39-4.32-1.99-5.09-2.43c-2.04-0.97-5-2.57-5-6.45c0-3.54,2.72-6.94,8.54-6.94c2.38,0,4.71,0.63,6.79,1.84l0.15,0.34
	c-0.19,1.12-0.19,1.21-0.34,2.28l-0.44,0.19c-1.12-0.97-2.91-2.23-5.92-2.23c-5.43,0-5.73,3.64-5.73,4.46c0,2.13,1.79,3.2,4.12,4.27
	l2.72,1.21c2.52,1.07,6.36,2.77,6.36,7.42c0,4.12-3.35,7.52-8.98,7.52c-3.69,0-5.82-1.31-7.03-2.04l-0.15-0.44
	c0.05-0.39,0.15-0.78,0.24-1.16c0.05-0.49,0.15-0.97,0.19-1.46L308.06,155.86z"/>
<path fill="#1D1D1B" d="M336.64,160.51c-1.07,0.05-1.21,0.05-2.77,0.1l-0.29-0.29c0.05-2.67,0.05-5.19,0.05-7.86
	c0-3.35,0-13-0.05-15.72c-1.7,0-6.06,0.1-7.91,0.15l-0.29-0.34c0.05-0.78,0.1-1.07,0.15-2.13l0.39-0.24c0.58,0,3.44,0.1,4.12,0.1
	h8.73c3.1,0,4.66-0.05,5.63-0.1l0.34,0.29c-0.1,0.82-0.15,1.31-0.19,2.18l-0.34,0.24c-1.26-0.05-2.52-0.1-4.12-0.15
	c-0.53,0-3.15-0.05-3.44-0.05c-0.05,1.12-0.05,2.28-0.05,3.4c0,2.43,0.05,4.9,0.1,7.37c0.05,2.47,0.05,5,0.1,7.47
	c0,0.78,0.15,4.46,0.15,5.29L336.64,160.51z"/>
<path fill="#1D1D1B" d="M351.72,160.56c-1.21-0.05-1.55-0.05-2.81,0.05l-0.29-0.29c0.05-2.33,0.05-4.37,0.05-6.02
	c0-1.02,0-13-0.34-19.7l0.34-0.34c1.12,0.05,1.5,0.05,2.81-0.05l0.29,0.34v1.07c-0.05,2.18-0.05,4.32-0.05,6.5
	c0,7.08,0.15,12.61,0.29,18.15L351.72,160.56z"/>
<path fill="#1D1D1B" d="M366.91,160.51c-1.07,0.05-1.21,0.05-2.77,0.1l-0.29-0.29c0.05-2.67,0.05-5.19,0.05-7.86
	c0-3.35,0-13-0.05-15.72c-1.7,0-6.06,0.1-7.91,0.15l-0.29-0.34c0.05-0.78,0.1-1.07,0.15-2.13l0.39-0.24c0.58,0,3.44,0.1,4.12,0.1
	h8.73c3.1,0,4.66-0.05,5.63-0.1l0.34,0.29c-0.1,0.82-0.15,1.31-0.19,2.18l-0.34,0.24c-1.26-0.05-2.52-0.1-4.12-0.15
	c-0.53,0-3.15-0.05-3.44-0.05c-0.05,1.12-0.05,2.28-0.05,3.4c0,2.43,0.05,4.9,0.1,7.37c0.05,2.47,0.05,5,0.1,7.47
	c0,0.78,0.15,4.46,0.15,5.29L366.91,160.51z"/>
<path fill="#1D1D1B" d="M398.25,134.51v0.58c-0.05,4.61-0.05,5.14-0.05,9.51v4.85c-0.05,2.72-0.1,4.85-0.97,6.74
	c-1.5,3.35-5.05,4.9-8.93,4.9c-2.43,0-4.61-0.63-6.11-1.75c-3.35-2.43-3.3-6.4-3.3-9.36v-2.18c0-2.91,0-10.53-0.05-13.2l0.29-0.34
	c1.41,0,1.46,0,2.86-0.05l0.29,0.29c-0.15,4.66-0.24,9.27-0.24,13.92c0,4.46,0.1,6.94,1.84,8.59c0.97,0.87,2.62,1.5,4.8,1.5
	c2.47,0,4.71-0.87,5.82-3.06c0.82-1.65,0.87-3.74,0.87-7.67c0-4.42-0.05-8.83-0.19-13.25l0.29-0.29c1.16,0,1.36,0,2.47-0.05
	L398.25,134.51z"/>
<path fill="#1D1D1B" d="M413.39,160.51c-1.07,0.05-1.21,0.05-2.77,0.1l-0.29-0.29c0.05-2.67,0.05-5.19,0.05-7.86
	c0-3.35,0-13-0.05-15.72c-1.7,0-6.06,0.1-7.91,0.15l-0.29-0.34c0.05-0.78,0.1-1.07,0.15-2.13l0.39-0.24c0.58,0,3.45,0.1,4.12,0.1
	h8.73c3.11,0,4.66-0.05,5.63-0.1l0.34,0.29c-0.1,0.82-0.15,1.31-0.19,2.18l-0.34,0.24c-1.26-0.05-2.52-0.1-4.12-0.15
	c-0.53,0-3.15-0.05-3.45-0.05c-0.05,1.12-0.05,2.28-0.05,3.4c0,2.43,0.05,4.9,0.1,7.37c0.05,2.47,0.05,5,0.1,7.47
	c0,0.78,0.15,4.46,0.15,5.29L413.39,160.51z"/>
<path fill="#1D1D1B" d="M440.17,160.56h-11.3c-1.26,0.05-1.94,0.1-3.3,0.15l-0.29-0.34v-1.02c0.05-1.55,0.05-3.15,0.05-4.71
	c0-6.55-0.1-13.58-0.34-20.13l0.34-0.29c1.02,0.05,1.89,0.05,2.86,0.05h6.55c2.18,0,3.83-0.05,5.34-0.1l0.34,0.29
	c-0.1,0.97-0.1,1.21-0.15,2.13l-0.34,0.29c-1.94-0.1-2.72-0.1-9.9-0.15l-1.79-0.05c0,2.86,0,6.16,0.05,8.98h3.3
	c1.21,0,2.47,0,3.69-0.05c2.52,0,2.72,0,4.32-0.05l0.24,0.29c-0.1,0.97-0.1,1.07-0.1,2.04l-0.34,0.24c-1.75-0.1-2.91-0.1-7.91-0.05
	h-3.15c0,1.75,0.1,9.27,0.15,9.99h2.91c3.44,0,3.98,0,8.98-0.15l0.24,0.34c-0.1,0.92-0.1,1.02-0.1,2.04L440.17,160.56z"/>
<path fill="#1D1D1B" d="M460.82,160.96c-4.3,0-6.58-2.38-6.58-6.58c0-3.93,1.95-11.42,9.51-11.42c4.67,0,6.52,2.99,6.52,6.58
	c0,1.18-0.2,2.35-0.54,3.53C469.29,154.68,467.54,160.96,460.82,160.96z M468.08,149.38c0-3.59-2.42-4.74-4.4-4.74
	c-6.32,0-7.29,8.06-7.29,9.81c0,2.82,1.54,4.8,4.53,4.8c1.14,0,2.32-0.17,3.53-1.14c2.22-1.78,2.96-4.77,3.22-5.91
	C467.91,151.26,468.08,150.32,468.08,149.38z"/>
<path fill="#1D1D1B" d="M478.46,145.04c-1.68,7.29-2.05,9-3.19,15.28l-0.27,0.24l-1.88,0.07l-0.2-0.2l1.58-7.05l1.81-8.33
	l-2.52,0.07l-0.2-0.2l0.37-1.44l0.27-0.2l2.45,0.07l0.5-2.49c0.4-1.81,0.54-2.55,0.84-3.29c0.5-1.38,1.48-3.16,4.63-3.16
	c0.71,0,1.21,0.1,1.81,0.2l0.2,0.27l-0.34,1.44l-0.27,0.2c-0.47-0.13-0.97-0.24-1.48-0.24c-0.67,0-1.34,0.2-1.78,0.64
	c-0.67,0.64-0.91,1.55-1.58,4.27l-0.44,2.15l3.33-0.07l0.2,0.27l-0.44,1.24l-0.24,0.27H478.46z"/>
<path fill="#1D1D1B" d="M537.25,242.51c1.36,2.09,4.12,2.86,6.11,2.86c3.49,0,6.11-1.99,6.11-5c0-2.09-1.26-3.2-3.06-4.12
	c-0.73-0.39-4.32-1.99-5.09-2.43c-2.04-0.97-5-2.57-5-6.45c0-3.54,2.72-6.94,8.54-6.94c2.38,0,4.71,0.63,6.79,1.84l0.15,0.34
	c-0.19,1.12-0.19,1.21-0.34,2.28l-0.44,0.19c-1.12-0.97-2.91-2.23-5.92-2.23c-5.43,0-5.72,3.64-5.72,4.46c0,2.13,1.79,3.2,4.12,4.27
	l2.72,1.21c2.52,1.07,6.36,2.77,6.36,7.42c0,4.12-3.35,7.52-8.98,7.52c-3.69,0-5.82-1.31-7.04-2.04l-0.15-0.44
	c0.05-0.39,0.15-0.78,0.24-1.17c0.05-0.49,0.15-0.97,0.19-1.46L537.25,242.51z"/>
<path fill="#1D1D1B" d="M574.85,247.21h-11.3c-1.26,0.05-1.94,0.1-3.3,0.15l-0.29-0.34V246c0.05-1.55,0.05-3.15,0.05-4.71
	c0-6.55-0.1-13.58-0.34-20.14l0.34-0.29c1.02,0.05,1.89,0.05,2.86,0.05h6.55c2.18,0,3.83-0.05,5.34-0.1l0.34,0.29
	c-0.1,0.97-0.1,1.21-0.15,2.13l-0.34,0.29c-1.94-0.1-2.72-0.1-9.9-0.15l-1.79-0.05c0,2.86,0,6.16,0.05,8.98h3.3
	c1.21,0,2.47,0,3.69-0.05c2.52,0,2.72,0,4.32-0.05l0.24,0.29c-0.1,0.97-0.1,1.07-0.1,2.04l-0.34,0.24c-1.75-0.1-2.91-0.1-7.91-0.05
	h-3.15c0,1.75,0.1,9.27,0.15,9.99h2.91c3.45,0,3.98,0,8.98-0.15l0.24,0.34c-0.1,0.92-0.1,1.02-0.1,2.04L574.85,247.21z"/>
<path fill="#1D1D1B" d="M582.76,221.01c0.15,0,7.38-0.1,7.57-0.1c2.04,0,4.03,0.1,5.73,0.83c2.33,1.07,3.83,3.35,3.83,6.11
	c0,3.98-3.15,6.79-7.47,7.33l2.52,3.1c3.06,3.74,3.59,4.37,7.04,8.54l-0.19,0.39h-2.09c-0.44,0-0.92,0.05-1.36,0.05l-0.39-0.19
	c-0.73-0.97-1.5-1.94-2.23-2.91c-1.02-1.31-2.09-2.57-3.11-3.83c-0.73-0.92-3.4-4.27-3.83-4.8c-1.26,0.05-1.6,0.05-2.96,0.05
	c0,3.78,0.1,7.57,0.24,11.35l-0.29,0.29c-1.21,0-1.5,0-2.77,0.05l-0.29-0.29c0.05-1.99,0.05-4.03,0.05-6.02
	c0-6.55-0.05-13.1-0.34-19.65L582.76,221.01z M592.85,232.66c1.26-0.34,3.88-1.36,3.88-4.71c0-1.6-0.63-2.72-1.41-3.4
	c-1.26-1.12-3.2-1.21-5.77-1.21c-1.07,0-2.52,0.05-3.78,0.1v9.7C589.45,233.14,591.25,233.14,592.85,232.66z"/>
<path fill="#1D1D1B" d="M617.16,247.21c-1.7,0-2.09,0-3.54,0.05l-0.34-0.29c-0.78-2.18-1.89-5.77-2.62-8.01l-3.2-9.85
	c-0.44-1.31-0.87-2.62-1.31-3.93c-0.34-1.07-0.92-2.77-1.26-3.83l0.19-0.34c1.7-0.1,1.89-0.1,3.01-0.19l0.34,0.24
	c0.92,3.54,1.75,6.06,2.81,9.56l4.37,13.83l5.24-16.54c0.78-2.47,0.92-2.91,2.04-6.79l0.34-0.24c1.21,0.05,1.5,0.05,2.67,0
	l0.24,0.34c-0.63,1.79-0.87,2.47-3.06,8.78l-2.96,8.83c-1.12,3.35-1.26,3.83-2.67,8.1L617.16,247.21z"/>
<path fill="#1D1D1B" d="M635.11,247.21c-1.21-0.05-1.55-0.05-2.81,0.05l-0.29-0.29c0.05-2.33,0.05-4.37,0.05-6.02
	c0-1.02,0-13-0.34-19.7l0.34-0.34c1.12,0.05,1.5,0.05,2.81-0.05l0.29,0.34v1.07c-0.05,2.18-0.05,4.32-0.05,6.5
	c0,7.08,0.15,12.61,0.29,18.15L635.11,247.21z"/>
<path fill="#1D1D1B" d="M663.49,242.65c-0.15,1.31-0.15,1.55-0.19,2.67l-0.19,0.39c-1.5,1.12-3.64,2.04-7.28,2.04
	c-2.13,0-5.68-0.29-8.73-3.15c-2.86-2.62-4.12-6.45-4.12-10.38c0-7.47,4.61-13.83,13.15-13.83c3.64,0,5.68,1.12,6.84,1.75l0.24,0.34
	c-0.19,0.87-0.24,1.07-0.39,2.23l-0.39,0.24c-1.26-0.83-3.15-2.04-6.31-2.04c-6.89,0-9.95,5.73-9.95,11.16
	c0,5.63,3.25,11.11,10.09,11.11c3.59,0,5.24-1.36,6.84-2.72L663.49,242.65z"/>
<path fill="#1D1D1B" d="M686,247.21h-11.3c-1.26,0.05-1.94,0.1-3.3,0.15l-0.29-0.34V246c0.05-1.55,0.05-3.15,0.05-4.71
	c0-6.55-0.1-13.58-0.34-20.14l0.34-0.29c1.02,0.05,1.89,0.05,2.86,0.05h6.55c2.18,0,3.83-0.05,5.34-0.1l0.34,0.29
	c-0.1,0.97-0.1,1.21-0.15,2.13l-0.34,0.29c-1.94-0.1-2.72-0.1-9.9-0.15l-1.8-0.05c0,2.86,0,6.16,0.05,8.98h3.3
	c1.21,0,2.47,0,3.69-0.05c2.52,0,2.72,0,4.32-0.05l0.24,0.29c-0.1,0.97-0.1,1.07-0.1,2.04l-0.34,0.24c-1.75-0.1-2.91-0.1-7.91-0.05
	h-3.15c0,1.75,0.1,9.27,0.15,9.99h2.91c3.44,0,3.98,0,8.98-0.15l0.24,0.34c-0.1,0.92-0.1,1.02-0.1,2.04L686,247.21z"/>
<path fill="#1D1D1B" d="M692.7,242.51c1.36,2.09,4.12,2.86,6.11,2.86c3.49,0,6.11-1.99,6.11-5c0-2.09-1.26-3.2-3.06-4.12
	c-0.73-0.39-4.32-1.99-5.09-2.43c-2.04-0.97-5-2.57-5-6.45c0-3.54,2.72-6.94,8.54-6.94c2.38,0,4.71,0.63,6.79,1.84l0.15,0.34
	c-0.19,1.12-0.19,1.21-0.34,2.28l-0.44,0.19c-1.12-0.97-2.91-2.23-5.92-2.23c-5.43,0-5.73,3.64-5.73,4.46c0,2.13,1.8,3.2,4.12,4.27
	l2.72,1.21c2.52,1.07,6.36,2.77,6.36,7.42c0,4.12-3.35,7.52-8.98,7.52c-3.69,0-5.82-1.31-7.04-2.04l-0.15-0.44
	c0.05-0.39,0.15-0.78,0.24-1.17c0.05-0.49,0.15-0.97,0.19-1.46L692.7,242.51z"/>
</svg>
